<svg id="Layer_1" data-name="Layer 1" xmlns="http://www.w3.org/2000/svg" viewBox="0 0 96 96"><defs><style>.cls-1{fill:#a3d23a;}</style></defs><title>Language</title><g id="_Group_" data-name="&lt;Group&gt;"><path id="_Compound_Path_" data-name="&lt;Compound Path&gt;" class="cls-1" d="M48,21A27,27,0,1,0,75,48,27,27,0,0,0,48,21ZM66.7,37.2h-8A44.42,44.42,0,0,0,55,27.6,21.4,21.4,0,0,1,66.7,37.2ZM48,26.5a39.36,39.36,0,0,1,5.2,10.7H42.8A39.36,39.36,0,0,1,48,26.5ZM27.1,53.4a23.47,23.47,0,0,1-.7-5.4,23.47,23.47,0,0,1,.7-5.4h9.1a49,49,0,0,0-.4,5.4,49,49,0,0,0,.4,5.4Zm2.2,5.4h8A44.42,44.42,0,0,0,41,68.4,21.4,21.4,0,0,1,29.3,58.8Zm8-21.6h-8A21.4,21.4,0,0,1,41,27.6,39.8,39.8,0,0,0,37.3,37.2ZM48,69.5a39.36,39.36,0,0,1-5.2-10.7H53.1A36.43,36.43,0,0,1,48,69.5Zm6.3-16.1H41.7a49,49,0,0,1-.4-5.4,49,49,0,0,1,.4-5.4H54.3a49,49,0,0,1,.4,5.4A32.72,32.72,0,0,1,54.3,53.4Zm.7,15a39.8,39.8,0,0,0,3.7-9.6h8A21.4,21.4,0,0,1,55,68.4Zm4.8-15a49,49,0,0,0,.4-5.4,49,49,0,0,0-.4-5.4h9.1a23.47,23.47,0,0,1,.7,5.4,23.47,23.47,0,0,1-.7,5.4Z"/></g></svg>